<svg fill="none" xmlns="http://www.w3.org/2000/svg">
<path d="M35 0C37.21 0 39 1.8383 39 4.09532V7.14894H43.99C45.0519 7.14866 46.0705 7.57864 46.8223 8.34452C47.5741 9.11039 47.9976 10.1496 48 11.234V43.9149C48 46.1719 46.206 48 43.99 48H4.01C2.94813 48.0003 1.92953 47.5703 1.17774 46.8044C0.425949 46.0386 0.00238381 44.9994 0 43.9149L0 11.234C0 8.97702 1.794 7.14894 4.01 7.14894H9V4.09532C8.99895 3.55807 9.10162 3.02588 9.30215 2.5292C9.50267 2.03251 9.79711 1.58107 10.1686 1.20071C10.5401 0.820342 10.9814 0.518512 11.4673 0.312482C11.9531 0.106453 12.4739 0.000267414 13 0L35 0ZM42.991 11.234H5.01C4.87843 11.2327 4.74789 11.2579 4.62586 11.3082C4.50383 11.3584 4.39272 11.4328 4.2989 11.527C4.20507 11.6212 4.13037 11.7334 4.07908 11.8572C4.02779 11.9809 4.00091 12.1138 4 12.2482V42.9008C4 43.4523 4.452 43.9149 5.009 43.9149H42.99C43.1216 43.9162 43.2521 43.8911 43.3741 43.8408C43.4962 43.7905 43.6073 43.7161 43.7011 43.6219C43.7949 43.5277 43.8696 43.4155 43.9209 43.2918C43.9722 43.168 43.9991 43.0351 44 42.9008V12.2482C44 11.6967 43.548 11.234 42.991 11.234ZM23 15.3191C29.075 15.3191 34 20.3489 34 26.5532C34.0035 28.8491 33.315 31.0905 32.028 32.9729L35.43 36.4453C36.187 37.2194 36.193 38.4674 35.43 39.2477C35.2502 39.4323 35.0364 39.5788 34.8009 39.6788C34.5655 39.7788 34.313 39.8303 34.058 39.8303C33.803 39.8303 33.5505 39.7788 33.3151 39.6788C33.0796 39.5788 32.8658 39.4323 32.686 39.2477L29.286 35.7733C27.4428 37.0877 25.2481 37.7908 23 37.7872C16.925 37.7872 12 32.7575 12 26.5532C12 20.3489 16.925 15.3191 23 15.3191ZM23 19.4043C22.0807 19.4043 21.1705 19.5892 20.3212 19.9484C19.4719 20.3077 18.7003 20.8343 18.0503 21.4981C17.4002 22.162 16.8846 22.9501 16.5328 23.8174C16.1811 24.6848 16 25.6144 16 26.5532C16 27.492 16.1811 28.4216 16.5328 29.289C16.8846 30.1563 17.4002 30.9444 18.0503 31.6083C18.7003 32.2721 19.4719 32.7987 20.3212 33.158C21.1705 33.5172 22.0807 33.7021 23 33.7021C24.8565 33.7021 26.637 32.9489 27.9497 31.6083C29.2625 30.2676 30 28.4492 30 26.5532C30 24.6572 29.2625 22.8388 27.9497 21.4981C26.637 20.1574 24.8565 19.4043 23 19.4043ZM33.998 4.08511H14.002C13.8701 4.08429 13.7394 4.11024 13.6174 4.16144C13.4954 4.21264 13.3846 4.28808 13.2913 4.38338C13.1981 4.47867 13.1244 4.59192 13.0744 4.71657C13.0243 4.84121 12.9991 4.97475 13 5.10945V7.14894H35V5.10945C35.0008 4.97479 34.9754 4.84131 34.9254 4.71673C34.8753 4.59215 34.8015 4.47895 34.7084 4.38368C34.6152 4.28841 34.5044 4.21297 34.3825 4.16172C34.2605 4.11047 34.1299 4.08443 33.998 4.08511Z" fill="#949494"/>
</svg>
