<svg fill="none" xmlns="http://www.w3.org/2000/svg">
<path d="M47.1273 18.2778L25.3091 0C24.8727 0 24.4364 0 24 0C23.5636 0 23.1273 -4.2151e-07 22.6909 0.435185L0.872728 18.713C0.436364 18.713 0 19.5833 0 20.0185V44.8241C0 46.1296 0.872727 47 2.18182 47H45.8182C47.1273 47 48 46.1296 48 44.8241V20.0185C48 19.5833 47.5636 18.713 47.1273 18.2778ZM44.0727 43.0833H30.1091V33.0741C30.1091 29.5926 27.4909 26.9815 24 26.9815C20.5091 26.9815 17.8909 29.5926 17.8909 33.0741V43.0833H3.92727V20.8889L24 4.35185L44.0727 20.8889V43.0833Z" fill="#1A8CF4"/>
</svg>
